<svg width="60" height="60" viewBox="0 0 60 60" fill="none" xmlns="http://www.w3.org/2000/svg">
<path d="M23.436 27.6C22.932 27.096 22.176 27.096 21.672 27.6L20.16 29.118C19.656 29.622 19.656 30.378 20.16 30.882L26.724 37.446C26.724 37.446 26.976 37.446 26.976 37.698C27.48 37.95 28.236 37.95 28.488 37.446L39.84 25.836C40.344 25.332 40.344 24.576 39.84 24.072L38.328 22.56C37.824 22.056 37.068 22.056 36.564 22.56L27.474 31.638L23.436 27.6Z" fill="#A61423"/>
<path d="M51.198 8.92798C43.626 8.67598 38.328 6.91198 31.008 1.10398C30.756 0.851976 30.252 0.599976 30 0.599976C29.748 0.599976 29.244 0.599976 28.992 0.851976C21.672 6.90598 16.374 8.67598 8.80199 8.67598C8.04599 8.67598 7.54199 9.17998 7.54199 9.93598V32.646C7.54199 43.5 15.366 50.562 28.992 59.142C29.244 59.394 29.748 59.394 30 59.394C30.504 59.394 30.756 59.394 31.008 59.142C44.634 50.562 52.458 43.494 52.458 32.646V10.188C52.458 9.43198 51.954 8.92798 51.198 8.92798ZM47.412 32.652C47.412 40.224 42.87 45.774 30 54.102C17.13 45.774 12.588 40.218 12.588 32.652V13.47C19.152 12.714 24.198 10.692 30 6.40198C35.802 10.692 41.106 12.708 47.412 13.47V32.652Z" fill="#515151"/>
<path d="M4.80009 6C4.49317 6 4.18596 5.8827 3.95165 5.64839L0.351467 2.0483C-0.117156 1.57969 -0.117156 0.820071 0.351467 0.351459C0.820091 -0.117153 1.57973 -0.117153 2.04835 0.351459L5.64853 3.95155C6.11716 4.42016 6.11716 5.17978 5.64853 5.64839C5.41422 5.8827 5.107 6 4.80009 6Z" fill="#A61423"/>
<path d="M1.19991 6C0.892995 6 0.585779 5.8827 0.351467 5.64839C-0.117156 5.17978 -0.117156 4.42016 0.351467 3.95155L3.95165 0.351459C4.42027 -0.117153 5.17991 -0.117153 5.64853 0.351459C6.11716 0.820071 6.11716 1.57969 5.64853 2.0483L2.04835 5.64839C1.81404 5.8827 1.50683 6 1.19991 6Z" fill="#A61423"/>
<path d="M10.5 54C9.12146 54 8 52.8785 8 51.5C8 50.1215 9.12146 49 10.5 49C11.8785 49 13 50.1215 13 51.5C13 52.8785 11.8785 54 10.5 54ZM10.5 50.6667C10.0406 50.6667 9.66667 51.0406 9.66667 51.5C9.66667 51.9594 10.0406 52.3333 10.5 52.3333C10.9594 52.3333 11.3333 51.9594 11.3333 51.5C11.3333 51.0406 10.9594 50.6667 10.5 50.6667Z" fill="#A61423"/>
<path d="M54 47C55.1046 47 56 46.1046 56 45C56 43.8954 55.1046 43 54 43C52.8954 43 52 43.8954 52 45C52 46.1046 52.8954 47 54 47Z" fill="#A61423"/>
</svg>
