<svg width="60" height="60" viewBox="0 0 60 60" fill="none" xmlns="http://www.w3.org/2000/svg">
<path d="M9.00928 23.4805L27.6488 46.62L19.1941 23.4805H9.00928Z" fill="#A61423"/>
<path d="M20.8555 23.4805L29.8632 48.134L39.048 23.4805H20.8555Z" fill="#A61423"/>
<path d="M31.8702 47.2175L50.9902 23.4805H40.7126L31.8702 47.2175Z" fill="#A61423"/>
<path d="M43.6969 11H31.6393L39.9068 21.1754L43.6969 11Z" fill="#A61423"/>
<path d="M38.5011 21.9204L29.9996 11.4579L21.4989 21.9204H38.5011Z" fill="#A61423"/>
<path d="M28.3609 11H16.2947L20.038 21.2441L28.3609 11Z" fill="#A61423"/>
<path d="M14.9951 11.9875L8.78687 21.9204H18.6238L14.9951 11.9875Z" fill="#A61423"/>
<path d="M51.2133 21.9204L44.9988 11.9774L41.2937 21.9204H51.2133Z" fill="#A61423"/>
<path d="M6.39824 7.72189C6.05968 7.72189 5.72078 7.59249 5.4623 7.33402L1.49086 3.36268C0.973912 2.84574 0.973912 2.00779 1.49086 1.49085C2.00781 0.973915 2.84579 0.973915 3.36274 1.49085L7.33418 5.4622C7.85113 5.97913 7.85113 6.81709 7.33418 7.33402C7.0757 7.59249 6.73681 7.72189 6.39824 7.72189Z" fill="#515151"/>
<path d="M2.4268 7.72189C2.08823 7.72189 1.74934 7.59249 1.49086 7.33402C0.973912 6.81709 0.973912 5.97913 1.49086 5.4622L5.4623 1.49085C5.97925 0.973915 6.81723 0.973915 7.33418 1.49085C7.85113 2.00779 7.85113 2.84574 7.33418 3.36268L3.36274 7.33402C3.10426 7.59249 2.76536 7.72189 2.4268 7.72189Z" fill="#515151"/>
<path d="M10.4797 46.3312C8.95903 46.3312 7.72192 45.0941 7.72192 43.5734C7.72192 42.0527 8.95903 40.8156 10.4797 40.8156C12.0004 40.8156 13.2375 42.0527 13.2375 43.5734C13.2375 45.0941 12.0004 46.3312 10.4797 46.3312ZM10.4797 42.6541C9.97299 42.6541 9.56046 43.0666 9.56046 43.5734C9.56046 44.0801 9.97299 44.4926 10.4797 44.4926C10.9865 44.4926 11.399 44.0801 11.399 43.5734C11.399 43.0666 10.9865 42.6541 10.4797 42.6541Z" fill="#515151"/>
<path d="M49.6406 40.8156C50.8591 40.8156 51.8468 39.8278 51.8468 38.6093C51.8468 37.3908 50.8591 36.4031 49.6406 36.4031C48.4221 36.4031 47.4343 37.3908 47.4343 38.6093C47.4343 39.8278 48.4221 40.8156 49.6406 40.8156Z" fill="#515151"/>
</svg>
