<svg width="60" height="60" viewBox="0 0 60 60" fill="none" xmlns="http://www.w3.org/2000/svg">
<path d="M14 11H28C28.2652 11 28.5196 10.8946 28.7071 10.7071C28.8946 10.5196 29 10.2652 29 10C29 9.73478 28.8946 9.48043 28.7071 9.29289C28.5196 9.10536 28.2652 9 28 9H14C13.7348 9 13.4804 9.10536 13.2929 9.29289C13.1054 9.48043 13 9.73478 13 10C13 10.2652 13.1054 10.5196 13.2929 10.7071C13.4804 10.8946 13.7348 11 14 11Z" fill="#515151"/>
<path d="M57.158 33.174C57.2121 32.7849 57.1614 32.3884 57.0111 32.0254C56.8608 31.6624 56.6163 31.346 56.303 31.109C55.5468 30.5372 55.0059 29.7268 54.768 28.809C54.6686 28.4293 54.4699 28.0828 54.1925 27.8052C53.915 27.5275 53.5687 27.3287 53.189 27.229C52.2718 26.9893 51.4618 26.4483 50.889 25.693C50.6512 25.3805 50.3348 25.1367 49.972 24.9863C49.6093 24.8359 49.2131 24.7844 48.824 24.837C47.8895 24.9651 46.939 24.7767 46.124 24.302C45.7854 24.1024 45.3995 23.9971 45.0065 23.9971C44.6134 23.9971 44.2276 24.1024 43.889 24.302C43.0701 24.7793 42.1151 24.969 41.176 24.841C40.787 24.7896 40.3913 24.8415 40.0288 24.9916C39.6663 25.1417 39.3497 25.3847 39.111 25.696C38.5392 26.4522 37.7287 26.9931 36.811 27.231C36.4312 27.3304 36.0848 27.5291 35.8071 27.8065C35.5295 28.084 35.3306 28.4304 35.231 28.81C34.9912 29.7272 34.4503 30.5372 33.695 31.11C33.3817 31.3471 33.1372 31.6634 32.9868 32.0264C32.8363 32.3893 32.7853 32.7858 32.839 33.175C32.9665 34.1095 32.7782 35.0598 32.304 35.875C32.1043 36.2136 31.999 36.5995 31.999 36.9925C31.999 37.3856 32.1043 37.7715 32.304 38.11C32.7819 38.9287 32.9716 39.8839 32.843 40.823C32.7889 41.2122 32.8396 41.6087 32.9899 41.9717C33.1402 42.3347 33.3846 42.651 33.698 42.888C34.4542 43.4598 34.9951 44.2703 35.233 45.188C35.3324 45.5678 35.531 45.9142 35.8085 46.1919C36.086 46.4695 36.4323 46.6684 36.812 46.768C37.7291 47.0078 38.5391 47.5487 39.112 48.304C39.3501 48.6161 39.6666 48.8597 40.0292 49.01C40.3919 49.1604 40.7879 49.2121 41.177 49.16C41.3675 49.1338 41.5596 49.1204 41.752 49.12C42.5004 49.1197 43.2354 49.3181 43.882 49.695C44.2206 49.8947 44.6064 50 44.9995 50C45.3925 50 45.7784 49.8947 46.117 49.695C46.9357 49.2172 47.8908 49.0275 48.83 49.156C49.2189 49.2073 49.6145 49.1553 49.977 49.0052C50.3395 48.8551 50.6561 48.6122 50.895 48.301C51.4668 47.5448 52.2773 47.0039 53.195 46.766C53.5747 46.6666 53.9212 46.468 54.1988 46.1905C54.4765 45.913 54.6753 45.5667 54.775 45.187C55.0147 44.2699 55.5557 43.4599 56.311 42.887C56.6243 42.6499 56.8687 42.3336 57.0192 41.9707C57.1696 41.6077 57.2206 41.2112 57.167 40.822C57.0395 39.8876 57.2278 38.9373 57.702 38.122V38.113C57.8999 37.7755 58.0043 37.3913 58.0043 37C58.0043 36.6087 57.8999 36.2245 57.702 35.887C57.2224 35.069 57.0308 34.1137 57.158 33.174ZM45 47C43.0222 47 41.0888 46.4135 39.4443 45.3147C37.7998 44.2159 36.5181 42.6541 35.7612 40.8269C35.0043 38.9996 34.8063 36.9889 35.1921 35.0491C35.578 33.1093 36.5304 31.3275 37.9289 29.929C39.3274 28.5304 41.1093 27.578 43.0491 27.1922C44.9889 26.8063 46.9996 27.0044 48.8268 27.7612C50.6541 28.5181 52.2159 29.7998 53.3147 31.4443C54.4135 33.0888 55 35.0222 55 37C54.9971 39.6513 53.9426 42.1931 52.0678 44.0679C50.1931 45.9426 47.6513 46.9971 45 47Z" fill="#A61423"/>
<path d="M45 29C43.4177 29 41.871 29.4692 40.5554 30.3482C39.2398 31.2273 38.2145 32.4767 37.609 33.9385C37.0035 35.4003 36.845 37.0089 37.1537 38.5607C37.4624 40.1126 38.2243 41.538 39.3431 42.6568C40.462 43.7757 41.8874 44.5376 43.4393 44.8463C44.9911 45.155 46.5997 44.9965 48.0615 44.391C49.5233 43.7855 50.7727 42.7601 51.6518 41.4446C52.5308 40.129 53 38.5822 53 37C52.9976 34.879 52.154 32.8455 50.6542 31.3458C49.1544 29.846 47.121 29.0024 45 29ZM48.707 35.707L43.707 40.707C43.5195 40.8945 43.2652 40.9998 43 40.9998C42.7348 40.9998 42.4805 40.8945 42.293 40.707L41.293 39.707C41.1108 39.5184 41.01 39.2658 41.0123 39.0036C41.0146 38.7414 41.1198 38.4906 41.3052 38.3052C41.4906 38.1198 41.7414 38.0146 42.0036 38.0123C42.2658 38.01 42.5184 38.1108 42.707 38.293L43 38.586L47.293 34.293C47.4816 34.1108 47.7342 34.01 47.9964 34.0123C48.2586 34.0146 48.5094 34.1198 48.6948 34.3052C48.8802 34.4906 48.9854 34.7414 48.9877 35.0036C48.9899 35.2658 48.8892 35.5184 48.707 35.707Z" fill="#A61423"/>
<path d="M49.4109 57.992C49.4604 58.0019 49.5115 57.9995 49.5598 57.9851C49.6081 57.9706 49.6521 57.9445 49.6879 57.909L51.1879 56.409C51.5381 56.0613 52.0115 55.8662 52.5049 55.866H55.1749C55.2224 55.8657 55.2691 55.8537 55.3109 55.8312C55.3527 55.8087 55.3884 55.7764 55.4149 55.737C55.4414 55.6976 55.4579 55.6523 55.463 55.6051C55.468 55.5579 55.4615 55.5101 55.4439 55.466L52.7269 49.239C52.6378 49.323 52.5558 49.4143 52.4819 49.512C52.0309 50.1102 51.4282 50.5769 50.7361 50.8636C50.044 51.1504 49.2878 51.2469 48.5459 51.143C48.0542 51.0766 47.5544 51.1755 47.1249 51.424C46.9017 51.551 46.6674 51.6574 46.4249 51.742L49.1829 57.822C49.2039 57.867 49.2357 57.9061 49.2755 57.9358C49.3153 57.9654 49.3618 57.9848 49.4109 57.992Z" fill="#A61423"/>
<path d="M34.5781 55.7279C34.6048 55.7679 34.6408 55.8008 34.6829 55.8239C34.725 55.8471 34.772 55.8598 34.8201 55.8609H37.4901C37.9845 55.8612 38.4587 56.0571 38.8091 56.4059L40.3171 57.9149C40.3523 57.9484 40.395 57.973 40.4416 57.9868C40.4883 58.0006 40.5375 58.0031 40.5853 57.9943C40.6331 57.9854 40.6781 57.9653 40.7166 57.9357C40.7552 57.9061 40.7862 57.8678 40.8071 57.8239L43.5671 51.7389C43.3275 51.6548 43.0959 51.5493 42.8751 51.4239C42.4458 51.1719 41.9443 51.0715 41.4511 51.1389C40.7088 51.2443 39.9518 51.1486 39.2591 50.8617C38.5664 50.5748 37.9635 50.1073 37.5131 49.5079C37.4388 49.4093 37.3561 49.3173 37.2661 49.2329L34.5471 55.4709C34.5295 55.5128 34.5232 55.5585 34.5286 55.6035C34.5341 55.6486 34.5511 55.6914 34.5781 55.7279Z" fill="#A61423"/>
<path d="M38.589 7.00008L35 3.41309V6.00008C35 6.2653 35.1054 6.51965 35.2929 6.70719C35.4804 6.89473 35.7348 7.00008 36 7.00008H38.589Z" fill="#515151"/>
<path d="M3 54H33.006L35.46 48.37C34.9315 48.1016 34.4658 47.7244 34.0936 47.2632C33.7213 46.802 33.4508 46.2672 33.3 45.694C33.1756 45.2121 32.8915 44.7866 32.494 44.487C31.8965 44.0354 31.4304 43.4325 31.1437 42.7406C30.857 42.0487 30.7601 41.2928 30.863 40.551C30.9308 40.0592 30.8318 39.559 30.582 39.13C30.2043 38.4846 30.0052 37.7503 30.0052 37.0025C30.0052 36.2547 30.2043 35.5204 30.582 34.875C30.8343 34.4459 30.9347 33.9442 30.867 33.451C30.764 32.7089 30.8609 31.9527 31.1476 31.2605C31.4343 30.5682 31.9005 29.965 32.498 29.513C32.8931 29.2142 33.1769 28.7918 33.304 28.313C33.4919 27.5895 33.8691 26.9291 34.3966 26.3996C34.9242 25.8701 35.5832 25.4906 36.306 25.3C36.7879 25.1756 37.2134 24.8915 37.513 24.494C38.1256 23.6874 39.0087 23.1289 40 22.921V9H36C35.2043 9 34.4413 8.68393 33.8787 8.12132C33.3161 7.55871 33 6.79565 33 6V2H3C2.73478 2 2.48043 2.10536 2.29289 2.29289C2.10536 2.48043 2 2.73478 2 3V53C2 53.2652 2.10536 53.5196 2.29289 53.7071C2.48043 53.8946 2.73478 54 3 54ZM29 29H22C21.7348 29 21.4804 28.8946 21.2929 28.7071C21.1054 28.5196 21 28.2652 21 28C21 27.7348 21.1054 27.4804 21.2929 27.2929C21.4804 27.1054 21.7348 27 22 27H29C29.2652 27 29.5196 27.1054 29.7071 27.2929C29.8946 27.4804 30 27.7348 30 28C30 28.2652 29.8946 28.5196 29.7071 28.7071C29.5196 28.8946 29.2652 29 29 29ZM28 33C28 33.2652 27.8946 33.5196 27.7071 33.7071C27.5196 33.8946 27.2652 34 27 34H14C13.7348 34 13.4804 33.8946 13.2929 33.7071C13.1054 33.5196 13 33.2652 13 33C13 32.7348 13.1054 32.4804 13.2929 32.2929C13.4804 32.1054 13.7348 32 14 32H27C27.2652 32 27.5196 32.1054 27.7071 32.2929C27.8946 32.4804 28 32.7348 28 33ZM14 7H28C28.7956 7 29.5587 7.31607 30.1213 7.87868C30.6839 8.44129 31 9.20435 31 10C31 10.7957 30.6839 11.5587 30.1213 12.1213C29.5587 12.6839 28.7956 13 28 13H14C13.2044 13 12.4413 12.6839 11.8787 12.1213C11.3161 11.5587 11 10.7957 11 10C11 9.20435 11.3161 8.44129 11.8787 7.87868C12.4413 7.31607 13.2044 7 14 7ZM7 17H35C35.2652 17 35.5196 17.1054 35.7071 17.2929C35.8946 17.4804 36 17.7348 36 18C36 18.2652 35.8946 18.5196 35.7071 18.7071C35.5196 18.8946 35.2652 19 35 19H7C6.73478 19 6.48043 18.8946 6.29289 18.7071C6.10536 18.5196 6 18.2652 6 18C6 17.7348 6.10536 17.4804 6.29289 17.2929C6.48043 17.1054 6.73478 17 7 17ZM7 22H33C33.2652 22 33.5196 22.1054 33.7071 22.2929C33.8946 22.4804 34 22.7348 34 23C34 23.2652 33.8946 23.5196 33.7071 23.7071C33.5196 23.8946 33.2652 24 33 24H7C6.73478 24 6.48043 23.8946 6.29289 23.7071C6.10536 23.5196 6 23.2652 6 23C6 22.7348 6.10536 22.4804 6.29289 22.2929C6.48043 22.1054 6.73478 22 7 22ZM7 27H18C18.2652 27 18.5196 27.1054 18.7071 27.2929C18.8946 27.4804 19 27.7348 19 28C19 28.2652 18.8946 28.5196 18.7071 28.7071C18.5196 28.8946 18.2652 29 18 29H7C6.73478 29 6.48043 28.8946 6.29289 28.7071C6.10536 28.5196 6 28.2652 6 28C6 27.7348 6.10536 27.4804 6.29289 27.2929C6.48043 27.1054 6.73478 27 7 27ZM7 32H10C10.2652 32 10.5196 32.1054 10.7071 32.2929C10.8946 32.4804 11 32.7348 11 33C11 33.2652 10.8946 33.5196 10.7071 33.7071C10.5196 33.8946 10.2652 34 10 34H7C6.73478 34 6.48043 33.8946 6.29289 33.7071C6.10536 33.5196 6 33.2652 6 33C6 32.7348 6.10536 32.4804 6.29289 32.2929C6.48043 32.1054 6.73478 32 7 32ZM7 37H27C27.2652 37 27.5196 37.1054 27.7071 37.2929C27.8946 37.4804 28 37.7348 28 38C28 38.2652 27.8946 38.5196 27.7071 38.7071C27.5196 38.8946 27.2652 39 27 39H7C6.73478 39 6.48043 38.8946 6.29289 38.7071C6.10536 38.5196 6 38.2652 6 38C6 37.7348 6.10536 37.4804 6.29289 37.2929C6.48043 37.1054 6.73478 37 7 37ZM7 42H28C28.2652 42 28.5196 42.1054 28.7071 42.2929C28.8946 42.4804 29 42.7348 29 43C29 43.2652 28.8946 43.5196 28.7071 43.7071C28.5196 43.8946 28.2652 44 28 44H7C6.73478 44 6.48043 43.8946 6.29289 43.7071C6.10536 43.5196 6 43.2652 6 43C6 42.7348 6.10536 42.4804 6.29289 42.2929C6.48043 42.1054 6.73478 42 7 42ZM7 47H18C18.2652 47 18.5196 47.1054 18.7071 47.2929C18.8946 47.4804 19 47.7348 19 48C19 48.2652 18.8946 48.5196 18.7071 48.7071C18.5196 48.8946 18.2652 49 18 49H7C6.73478 49 6.48043 48.8946 6.29289 48.7071C6.10536 48.5196 6 48.2652 6 48C6 47.7348 6.10536 47.4804 6.29289 47.2929C6.48043 47.1054 6.73478 47 7 47Z" fill="#515151"/>
<path d="M47.8001 9C47.4932 9 47.186 8.8827 46.9516 8.64839L43.3515 5.0483C42.8828 4.57969 42.8828 3.82007 43.3515 3.35146C43.8201 2.88285 44.5797 2.88285 45.0484 3.35146L48.6485 6.95155C49.1172 7.42016 49.1172 8.17978 48.6485 8.64839C48.4142 8.8827 48.107 9 47.8001 9Z" fill="#A61423"/>
<path d="M44.1999 9C43.893 9 43.5858 8.8827 43.3515 8.64839C42.8828 8.17978 42.8828 7.42016 43.3515 6.95155L46.9516 3.35146C47.4203 2.88285 48.1799 2.88285 48.6485 3.35146C49.1172 3.82007 49.1172 4.57969 48.6485 5.0483L45.0484 8.64839C44.814 8.8827 44.5068 9 44.1999 9Z" fill="#A61423"/>
<path d="M55.5 21C54.1215 21 53 19.8785 53 18.5C53 17.1215 54.1215 16 55.5 16C56.8785 16 58 17.1215 58 18.5C58 19.8785 56.8785 21 55.5 21ZM55.5 17.6667C55.0406 17.6667 54.6667 18.0406 54.6667 18.5C54.6667 18.9594 55.0406 19.3333 55.5 19.3333C55.9594 19.3333 56.3333 18.9594 56.3333 18.5C56.3333 18.0406 55.9594 17.6667 55.5 17.6667Z" fill="#A61423"/>
</svg>
