<svg width="60" height="60" viewBox="0 0 60 60" fill="none" xmlns="http://www.w3.org/2000/svg">
<path d="M46.4092 59.0625V0.856934L44.0654 3.20068V60H46.194C46.4528 60 46.412 60 46.4092 59.0625Z" fill="#515151"/>
<path d="M17.8157 4.21875V60H42.1907V4.21875H17.8157ZM39.8719 36.0938C39.0966 36.0938 38.4656 35.4628 38.4656 34.6875C38.4656 33.9122 39.0966 33.2812 39.8719 33.2812C40.6472 33.2812 41.2781 33.9122 41.2781 34.6875C41.2781 35.4628 40.647 36.0938 39.8719 36.0938ZM39.8719 32.5781C39.1805 32.5781 38.5828 32.3438 38.2575 31.875H35.1844C34.6664 31.875 34.2469 31.455 34.2469 30.9375C34.2469 30.42 34.6664 30 35.1844 30H38.2575C38.5828 29.0625 39.1809 28.8281 39.8719 28.8281C40.9055 28.8281 41.7469 29.6691 41.7469 30.7031C41.7469 31.7372 40.9055 32.5781 39.8719 32.5781Z" fill="#A61423"/>
<path d="M13.5968 0.856934V59.0625C13.5898 60 13.5326 60 13.7918 60H15.9406V3.20068L13.5968 0.856934Z" fill="#515151"/>
<path d="M15.4016 0L17.7454 2.34375H43.2185L45.5623 0H15.4016Z" fill="#515151"/>
<path d="M4.80009 7C4.49317 7 4.18596 6.8827 3.95165 6.64839L0.351467 3.0483C-0.117156 2.57969 -0.117156 1.82007 0.351467 1.35146C0.820091 0.882847 1.57973 0.882847 2.04835 1.35146L5.64853 4.95155C6.11716 5.42016 6.11716 6.17978 5.64853 6.64839C5.41422 6.8827 5.107 7 4.80009 7Z" fill="#A61423"/>
<path d="M1.19991 7C0.892995 7 0.585779 6.8827 0.351467 6.64839C-0.117156 6.17978 -0.117156 5.42016 0.351467 4.95155L3.95165 1.35146C4.42027 0.882847 5.17991 0.882847 5.64853 1.35146C6.11716 1.82007 6.11716 2.57969 5.64853 3.0483L2.04835 6.64839C1.81404 6.8827 1.50683 7 1.19991 7Z" fill="#A61423"/>
<path d="M8.5 18C7.12146 18 6 16.8785 6 15.5C6 14.1215 7.12146 13 8.5 13C9.87854 13 11 14.1215 11 15.5C11 16.8785 9.87854 18 8.5 18ZM8.5 14.6667C8.04062 14.6667 7.66667 15.0406 7.66667 15.5C7.66667 15.9594 8.04062 16.3333 8.5 16.3333C8.95937 16.3333 9.33333 15.9594 9.33333 15.5C9.33333 15.0406 8.95937 14.6667 8.5 14.6667Z" fill="#A61423"/>
<path d="M54 55C55.1046 55 56 54.1046 56 53C56 51.8954 55.1046 51 54 51C52.8954 51 52 51.8954 52 53C52 54.1046 52.8954 55 54 55Z" fill="#A61423"/>
</svg>
