<svg width="60" height="60" viewBox="0 0 60 60" fill="none" xmlns="http://www.w3.org/2000/svg">
<path d="M26.25 20.625C26.25 19.0744 27.5119 17.8125 29.0625 17.8125H34.6875C36.2381 17.8125 37.5 19.0744 37.5 20.625V21.5625H39.375V20.625C39.375 18.0403 37.2722 15.9375 34.6875 15.9375H29.0625C26.4778 15.9375 24.375 18.0403 24.375 20.625V21.5625H26.25V20.625Z" fill="#A61423"/>
<path d="M21.5625 29.0625H29.0625V32.8125H21.5625V29.0625Z" fill="#A61423"/>
<path d="M14.0625 25.3125V12.1875H4.6875V25.3125H14.0625ZM7.5 15H11.25V22.5H7.5V15Z" fill="#515151"/>
<path d="M2.8125 2.8125H15.9375V4.6875H2.8125V2.8125Z" fill="#515151"/>
<path d="M15.5747 6.5625H3.17529L4.42592 10.3125H14.3241L15.5747 6.5625Z" fill="#515151"/>
<path d="M21.5625 34.6875H29.0625V38.4375H21.5625V34.6875Z" fill="#A61423"/>
<path d="M29.0625 25.3125C29.0625 24.2784 28.2216 23.4375 27.1875 23.4375H23.4375C22.4034 23.4375 21.5625 24.2784 21.5625 25.3125V27.1875H29.0625V25.3125Z" fill="#A61423"/>
<path d="M42.1875 25.3125C42.1875 24.2784 41.3466 23.4375 40.3125 23.4375H36.5625C35.5284 23.4375 34.6875 24.2784 34.6875 25.3125V27.1875H42.1875V25.3125Z" fill="#A61423"/>
<path d="M55.2562 49.6875L53.4908 19.6875H49.634L48.1321 45.2166L51.5624 48.3356V49.6875H55.2562Z" fill="#A61423"/>
<path d="M34.6875 29.0625H42.1875V32.8125H34.6875V29.0625Z" fill="#A61423"/>
<path d="M34.6875 38.4375H40.6753L42.1875 39.8128V34.6875H34.6875V38.4375Z" fill="#A61423"/>
<path d="M6.5625 49.6875H29.0625V57.1875H6.5625V49.6875Z" fill="#515151"/>
<path d="M51.5625 51.5625H57.1875V57.1875H51.5625V51.5625Z" fill="#A61423"/>
<path d="M15.9375 27.1875H2.8125V57.1875H4.6875V48.3103L15.9375 38.9363V27.1875ZM6.5625 42.1875H4.6875V40.3125H6.5625V42.1875ZM6.5625 38.4375H4.6875V36.5625H6.5625V38.4375ZM6.5625 34.6875H4.6875V32.8125H6.5625V34.6875ZM6.5625 30.9375H4.6875V29.0625H6.5625V30.9375ZM10.3125 42.1875H8.4375V40.3125H10.3125V42.1875ZM10.3125 38.4375H8.4375V36.5625H10.3125V38.4375ZM10.3125 34.6875H8.4375V32.8125H10.3125V34.6875ZM10.3125 30.9375H8.4375V29.0625H10.3125V30.9375ZM14.0625 38.4375H12.1875V36.5625H14.0625V38.4375ZM14.0625 34.6875H12.1875V32.8125H14.0625V34.6875ZM14.0625 30.9375H12.1875V29.0625H14.0625V30.9375Z" fill="#515151"/>
<path d="M36.5625 49.6875H44.0625V57.1875H36.5625V49.6875Z" fill="#515151"/>
<path d="M17.2144 40.3125L8.21436 47.8125H29.6372L37.8872 40.3125H17.2144Z" fill="#515151"/>
<path d="M30.9375 49.1644V57.1875H34.6875V47.8125H45.9375V57.1875H49.6875V49.1644L40.3125 40.6425L30.9375 49.1644Z" fill="#515151"/>
<path d="M55.3125 6.5625H52.5C52.5 4.49437 50.8181 2.8125 48.75 2.8125H47.8125V4.6875H48.75C49.7841 4.6875 50.625 5.52844 50.625 6.5625V8.4375H55.3125C56.3466 8.4375 57.1875 9.27844 57.1875 10.3125C57.1875 11.3466 56.3466 12.1875 55.3125 12.1875C53.7619 12.1875 52.5 13.4494 52.5 15V15.9375H54.375V15C54.375 14.4834 54.7959 14.0625 55.3125 14.0625C57.3806 14.0625 59.0625 12.3806 59.0625 10.3125C59.0625 8.24437 57.3806 6.5625 55.3125 6.5625Z" fill="#A61423"/>
<path d="M38.4375 14.0625H47.8125C48.3291 14.0625 48.75 14.4834 48.75 15V15.9375H50.625V15C50.625 13.4494 49.3631 12.1875 47.8125 12.1875H38.4375C37.9209 12.1875 37.5 11.7666 37.5 11.25C37.5 10.7334 37.9209 10.3125 38.4375 10.3125H41.25H42.1875H45V8.4375H42.1875H41.25C40.2159 8.4375 39.375 7.59656 39.375 6.5625C39.375 5.52844 40.2159 4.6875 41.25 4.6875H42.1875V2.8125H41.25C39.1819 2.8125 37.5 4.49437 37.5 6.5625C37.5 7.26469 37.7063 7.91437 38.0438 8.47687C36.6797 8.67094 35.625 9.83437 35.625 11.25C35.625 12.8006 36.8869 14.0625 38.4375 14.0625Z" fill="#A61423"/>
<path d="M44.0625 2.8125H45.9375V4.6875H44.0625V2.8125Z" fill="#A61423"/>
<path d="M27.8001 7C27.4932 7 27.186 6.8827 26.9516 6.64839L23.3515 3.0483C22.8828 2.57969 22.8828 1.82007 23.3515 1.35146C23.8201 0.882847 24.5797 0.882847 25.0484 1.35146L28.6485 4.95155C29.1172 5.42016 29.1172 6.17978 28.6485 6.64839C28.4142 6.8827 28.107 7 27.8001 7Z" fill="#A61423"/>
<path d="M24.1999 7C23.893 7 23.5858 6.8827 23.3515 6.64839C22.8828 6.17978 22.8828 5.42016 23.3515 4.95155L26.9516 1.35146C27.4203 0.882847 28.1799 0.882847 28.6485 1.35146C29.1172 1.82007 29.1172 2.57969 28.6485 3.0483L25.0484 6.64839C24.814 6.8827 24.5068 7 24.1999 7Z" fill="#A61423"/>
<path d="M57.5 21C56.1215 21 55 19.8785 55 18.5C55 17.1215 56.1215 16 57.5 16C58.8785 16 60 17.1215 60 18.5C60 19.8785 58.8785 21 57.5 21ZM57.5 17.6667C57.0406 17.6667 56.6667 18.0406 56.6667 18.5C56.6667 18.9594 57.0406 19.3333 57.5 19.3333C57.9594 19.3333 58.3333 18.9594 58.3333 18.5C58.3333 18.0406 57.9594 17.6667 57.5 17.6667Z" fill="#A61423"/>
</svg>
