<svg width="60" height="60" viewBox="0 0 60 60" fill="none" xmlns="http://www.w3.org/2000/svg">
<path d="M24.6562 44.9999H27.8438L27.5625 43.8749C27.4687 43.4999 27.0937 43.1249 26.625 43.1249H25.3125C23.8125 43.1249 22.4062 42.3749 21.4687 41.1562L18.5625 37.1249L15 38.6249L23.0625 44.4374C23.4375 44.8124 24.0937 44.9999 24.6562 44.9999Z" fill="#515151"/>
<path d="M38.4375 15.9375H21.5625C20.3437 15.9375 19.3125 16.6875 18.9375 17.8125H41.0625C40.6875 16.6875 39.6562 15.9375 38.4375 15.9375Z" fill="#A61423"/>
<path d="M38.4375 14.0625C39.375 14.0625 40.3125 14.3438 41.0625 14.9062C40.3125 10.9688 37.5938 7.59375 33.75 6.28125V12.1875H31.875V4.6875C31.875 4.125 31.5 3.75 30.9375 3.75H29.0625C28.5 3.75 28.125 4.125 28.125 4.6875V12.1875H26.25V6.28125C22.4062 7.59375 19.5938 10.875 18.9375 14.9062C19.6875 14.3438 20.625 14.0625 21.5625 14.0625H38.4375Z" fill="#A61423"/>
<path d="M34.5938 43.1251H33.2813C32.8125 43.1251 32.4375 43.4063 32.3438 43.8751L32.1562 45.0001H35.3438C35.9063 45.0001 36.5625 44.8126 37.0313 44.4376L43.125 39.9376V37.5938L41.4375 36.9376L38.4375 41.1563C37.5938 42.3751 36.1875 43.1251 34.5938 43.1251Z" fill="#515151"/>
<path d="M48.75 35.2499C48.75 34.8749 48 34.3124 46.875 34.3124C45.75 34.3124 45 34.8749 45 35.2499V43.8749L48.75 38.6249V35.2499Z" fill="#515151"/>
<path d="M20.625 25.875V26.4375C20.625 28.875 21.9375 31.0312 24 32.1562L26.8125 33.6562C28.7812 34.6875 31.125 34.6875 33.0937 33.6562L35.9062 32.1562C37.9687 31.0312 39.2812 28.7812 39.2812 26.4375V25.875L40.9688 24.8437C41.0625 24.75 41.1562 24.6562 41.1562 24.4687V21.8437C41.1562 21.6562 40.9688 21.4687 40.6875 21.4687C40.5938 21.4687 40.5 21.4687 40.5 21.5625L39.375 22.875V19.6875H20.625V22.875L19.4063 21.6562C19.2188 21.4687 18.9375 21.5625 18.8438 21.6562C18.75 21.75 18.75 21.8437 18.75 21.8437V24.4687C18.75 24.5625 18.8438 24.75 18.9375 24.8437L20.625 25.875Z" fill="#515151"/>
<path d="M48.75 52.5001V48.0938L45.8438 52.5001H48.75Z" fill="#A61423"/>
<path d="M50.625 39.2812V39.3749H50.5313L38.4375 56.2499H52.5V36.6562L50.625 39.2812ZM50.625 54.3749H42.2812L50.625 41.9062V54.3749Z" fill="#A61423"/>
<path d="M43.125 42.2812L38.0625 45.9374C37.2187 46.4999 36.2813 46.8749 35.3438 46.8749H30.9375V56.2499H36.0938L43.125 46.4999V42.2812Z" fill="#515151"/>
<path d="M17.8125 54.375H24.375V56.25H17.8125V54.375Z" fill="#A61423"/>
<path d="M17.8125 50.625H24.375V52.5H17.8125V50.625Z" fill="#A61423"/>
<path d="M33.375 41.25H34.6875C35.625 41.25 36.4688 40.7812 36.9375 40.0312L39.6562 36.2813L35.4375 34.6875L34.0312 35.4375C31.5 36.8437 28.5 36.8437 25.9688 35.4375L24.5625 34.6875L20.4375 36.375L23.0625 40.0312C23.625 40.7812 24.4688 41.25 25.3125 41.25H26.625C27.9375 41.25 29.0625 42.0937 29.3438 43.4062L30 45.8438L30.6563 43.4062C30.9375 42.0937 32.0625 41.25 33.375 41.25Z" fill="#515151"/>
<path d="M21.9375 45.9374L13.125 39.5624C10.7812 41.1562 9.375 43.7812 9.375 46.5937V56.2499H15.9375V48.7499H17.5313L16.875 46.1249L18.6562 45.6562L19.4063 48.6562H26.25V56.1562H29.0625V46.8749H24.6562C23.625 46.8749 22.6875 46.5937 21.9375 45.9374Z" fill="#515151"/>
<path d="M6.80009 38C6.49317 38 6.18596 37.8827 5.95165 37.6484L2.35147 34.0483C1.88284 33.5797 1.88284 32.8201 2.35147 32.3515C2.82009 31.8828 3.57973 31.8828 4.04835 32.3515L7.64853 35.9515C8.11716 36.4202 8.11716 37.1798 7.64853 37.6484C7.41422 37.8827 7.107 38 6.80009 38Z" fill="#A61423"/>
<path d="M3.19991 38C2.893 38 2.58578 37.8827 2.35147 37.6484C1.88284 37.1798 1.88284 36.4202 2.35147 35.9515L5.95165 32.3515C6.42027 31.8828 7.17991 31.8828 7.64853 32.3515C8.11716 32.8201 8.11716 33.5797 7.64853 34.0483L4.04835 37.6484C3.81404 37.8827 3.50683 38 3.19991 38Z" fill="#A61423"/>
<path d="M47.8001 9C47.4932 9 47.186 8.8827 46.9516 8.64839L43.3515 5.0483C42.8828 4.57969 42.8828 3.82007 43.3515 3.35146C43.8201 2.88285 44.5797 2.88285 45.0484 3.35146L48.6485 6.95155C49.1172 7.42016 49.1172 8.17978 48.6485 8.64839C48.4142 8.8827 48.107 9 47.8001 9Z" fill="#A61423"/>
<path d="M44.1999 9C43.893 9 43.5858 8.8827 43.3515 8.64839C42.8828 8.17978 42.8828 7.42016 43.3515 6.95155L46.9516 3.35146C47.4203 2.88285 48.1799 2.88285 48.6485 3.35146C49.1172 3.82007 49.1172 4.57969 48.6485 5.0483L45.0484 8.64839C44.814 8.8827 44.5068 9 44.1999 9Z" fill="#A61423"/>
<path d="M51.5 29C50.1215 29 49 27.8785 49 26.5C49 25.1215 50.1215 24 51.5 24C52.8785 24 54 25.1215 54 26.5C54 27.8785 52.8785 29 51.5 29ZM51.5 25.6667C51.0406 25.6667 50.6667 26.0406 50.6667 26.5C50.6667 26.9594 51.0406 27.3333 51.5 27.3333C51.9594 27.3333 52.3333 26.9594 52.3333 26.5C52.3333 26.0406 51.9594 25.6667 51.5 25.6667Z" fill="#A61423"/>
<path d="M10 18C11.1046 18 12 17.1046 12 16C12 14.8954 11.1046 14 10 14C8.89543 14 8 14.8954 8 16C8 17.1046 8.89543 18 10 18Z" fill="#A61423"/>
</svg>
