<svg width="231" height="40" viewBox="0 0 231 40" fill="none" xmlns="http://www.w3.org/2000/svg">
<path d="M39.0192 31.9998L31.216 39.998L2.35038 40L0 37.5898V7.99984L7.8043 0H36.6692L39.0192 2.40898V31.9998Z" fill="#ED1C24"/>
<path d="M36.6692 0L27.8931 8.99649V22.128L20.7039 12.001H5.54957V15.1832H10.0167V27.3221L0.000854492 37.5898V40L2.35044 39.998L13.383 28.6885V15.1832H17.8485V27.9986H21.1719V17.8712L28.3615 27.9986H31.2161V10.408L39.0196 2.40898L39.0192 0H36.6692Z" fill="white"/>
<path d="M51.505 15.8858H46.8231V12.0004H60.5136V15.8858H55.8321V27.9981H51.5054V15.8858H51.505Z" fill="black"/>
<path d="M62.7881 12.0009H75.3399V15.7702H67.0688V18.1953H74.5592V21.6929H67.0688V24.2284H75.452V27.999H62.7881V12.0009Z" fill="black"/>
<path d="M82.5736 19.8628L77.4441 12.0009H82.4175L85.1816 16.5028L87.9701 12.0009H92.829L87.7027 19.8173L93.0535 27.9986H88.0806L85.0915 23.177L82.0828 27.9986H77.2219L82.5736 19.8628Z" fill="black"/>
<path d="M95.0986 12.0009H99.4242V17.9889H104.976V12.0009H109.302V27.9986H104.976V21.9186H99.4242V27.9986H95.0986V12.0009Z" fill="black"/>
<path d="M111.9 19.9999C111.9 15.4049 115.512 11.6799 120.329 11.6799C125.143 11.6799 128.711 15.3601 128.711 19.9999C128.711 24.5941 125.099 28.3194 120.284 28.3194C115.466 28.3198 111.9 24.6384 111.9 19.9999ZM124.296 19.9999C124.296 17.6909 122.669 15.6786 120.284 15.6786C117.918 15.6786 116.336 17.6445 116.336 19.9999C116.336 22.3089 117.965 24.3175 120.328 24.3175C122.712 24.3179 124.296 22.354 124.296 19.9999Z" fill="black"/>
<path d="M131.328 12.0009H135.656V17.9889H141.206V12.0009H145.533V27.9986H141.206V21.9186H135.656V27.9986H131.328V12.0009Z" fill="black"/>
<path d="M148.898 12.0009H153.18V21.0046L159.224 12.0009H163.258V27.9986H158.977V18.9944L152.933 27.9986H148.898V12.0009Z" fill="black"/>
<path d="M166.625 12.0009H170.949V18.4924L176.323 12.0009H181.451L175.544 18.8795L181.651 27.999H176.458L172.534 22.0577L170.949 23.862V27.9994H166.625V12.0009Z" fill="black"/>
<path d="M181.685 19.9999C181.685 15.4049 185.296 11.6799 190.111 11.6799C194.928 11.6799 198.496 15.3601 198.496 19.9999C198.496 24.5941 194.883 28.3194 190.068 28.3194C185.251 28.3198 181.685 24.6384 181.685 19.9999ZM194.079 19.9999C194.079 17.6909 192.454 15.6786 190.068 15.6786C187.703 15.6786 186.122 17.6445 186.122 19.9999C186.122 22.3089 187.748 24.3175 190.112 24.3175C192.497 24.3179 194.079 22.354 194.079 19.9999Z" fill="black"/>
<path d="M217.822 12.0009H222.147V17.0273H224.511C228.257 17.0273 231 18.8573 231 22.4662C231 25.9198 228.547 27.999 224.735 27.999H217.822V12.0009ZM224.4 24.274C225.826 24.274 226.674 23.6108 226.674 22.3541C226.674 21.2344 225.826 20.5027 224.421 20.5027H222.147V24.274H224.4Z" fill="black"/>
<path d="M202.325 12.0009V19.019C202.325 20.6777 202.162 23.077 201.094 23.9257C200.592 24.3232 199.765 24.628 199.241 24.628V28.3997H199.651C201.147 28.3997 202.823 27.7833 203.466 27.3644C206.075 25.6666 206.398 22.4371 206.398 18.7892V15.8859H210.131V27.9981H214.457V12.0009H202.325Z" fill="black"/>
</svg>
