<svg width="60" height="60" viewBox="0 0 60 60" fill="none" xmlns="http://www.w3.org/2000/svg">
<path d="M15.9375 33.75V29.0625H16.875V25.3125H18.75V22.5H11.25V25.3125H13.125V29.0625H14.0625V33.75H15.9375Z" fill="#A61423"/>
<path d="M27.1875 50.625H25.3125V28.1456C24.6019 27.615 23.9709 26.9859 23.4375 26.2772V50.625H6.5625V25.3125H4.6875V50.625H2.8125V25.3125H0.9375V52.5H29.0625V29.8219C28.4109 29.6934 27.7828 29.4975 27.1875 29.2406V50.625Z" fill="#515151"/>
<path d="M34.4325 24.9393C33.4378 25.7756 32.175 26.25 30.8606 26.25C27.8016 26.25 25.3125 23.7609 25.3125 20.7018V19.4681L23.4375 18.3431V20.7018C23.4375 24.795 26.7675 28.125 30.8606 28.125C32.8312 28.125 34.7166 27.329 36.1031 25.9425L34.4325 24.9393Z" fill="#A61423"/>
<path d="M15.9375 7.57687V6.5625C15.9375 4.49437 17.6194 2.8125 19.6875 2.8125C21.7556 2.8125 23.4375 4.49437 23.4375 6.5625V10.3387L25.3125 10.9819V6.5625C25.3125 3.46031 22.7897 0.9375 19.6875 0.9375C16.5853 0.9375 14.0625 3.46031 14.0625 6.5625V7.575C14.37 7.53094 14.6812 7.5 15 7.5C15.3197 7.5 15.6309 7.53187 15.9375 7.57687Z" fill="#A61423"/>
<path d="M54.8625 25.2704L53.2556 23.8641C52.9387 25.1223 52.1944 26.2285 51.1462 27.002L52.3922 28.0923C53.6522 29.1948 54.375 30.7866 54.375 32.4601C54.375 35.4545 52.0378 37.9941 49.0538 38.2426L47.8125 38.3457V42.1088L49.365 41.9795C54.3169 41.5679 58.125 37.4288 58.125 32.4601C58.125 29.7048 56.9363 27.0845 54.8625 25.2704Z" fill="#515151"/>
<path d="M44.0625 42.1875C44.7141 42.1875 45.3431 42.286 45.9375 42.4641V34.0453C45.0834 34.4522 44.1328 34.6875 43.125 34.6875C41.5884 34.6875 40.1756 34.1522 39.0562 33.2644L34.9509 49.6875H37.575C37.5309 49.38 37.5 49.0688 37.5 48.75C37.5 45.1322 40.4437 42.1875 44.0625 42.1875Z" fill="#515151"/>
<path d="M44.0625 53.4375C46.6472 53.4375 48.75 51.3347 48.75 48.75C48.75 46.1653 46.6472 44.0625 44.0625 44.0625C41.4778 44.0625 39.375 46.1653 39.375 48.75C39.375 51.3347 41.4778 53.4375 44.0625 53.4375ZM44.0625 46.875C45.0984 46.875 45.9375 47.7141 45.9375 48.75C45.9375 49.7859 45.0984 50.625 44.0625 50.625C43.0266 50.625 42.1875 49.7859 42.1875 48.75C42.1875 47.7141 43.0266 46.875 44.0625 46.875Z" fill="#A61423"/>
<path d="M43.125 23.4375C40.5403 23.4375 38.4375 25.5403 38.4375 28.125C38.4375 30.7097 40.5403 32.8125 43.125 32.8125C45.7097 32.8125 47.8125 30.7097 47.8125 28.125C47.8125 25.5403 45.7097 23.4375 43.125 23.4375ZM43.125 30C42.0891 30 41.25 29.1609 41.25 28.125C41.25 27.0891 42.0891 26.25 43.125 26.25C44.1609 26.25 45 27.0891 45 28.125C45 29.1609 44.1609 30 43.125 30Z" fill="#A61423"/>
<path d="M49.3022 25.9312C50.6465 25.3481 51.5625 24.0216 51.5625 22.5C51.5625 20.4319 49.8806 18.75 47.8125 18.75C46.0369 18.75 44.5537 19.9941 44.1675 21.6534C46.5534 22.0369 48.51 23.7066 49.3022 25.9312Z" fill="#515151"/>
<path d="M51.5625 53.4375V52.5C51.5625 51.9825 51.1416 51.5625 50.625 51.5625H49.9828C48.9272 53.7759 46.6734 55.3125 44.0625 55.3125C41.4516 55.3125 39.1978 53.7759 38.1422 51.5625H33.75C33.2334 51.5625 32.8125 51.9825 32.8125 52.5V57.1875H47.8125V56.25C47.8125 54.6994 49.0744 53.4375 50.625 53.4375H51.5625Z" fill="#515151"/>
<path d="M21.5625 14.0626V15.032L37.575 24.6395C38.5922 23.026 40.289 21.887 42.2625 21.6263C42.4078 20.7029 42.7762 19.8545 43.3143 19.1363L21.0403 11.4995C21.3759 12.287 21.5625 13.1532 21.5625 14.0626Z" fill="#515151"/>
<path d="M19.6875 14.0625C19.6875 11.4778 17.5847 9.375 15 9.375C12.4153 9.375 10.3125 11.4778 10.3125 14.0625V20.625H19.6875V14.0625ZM15 15.9375C13.9641 15.9375 13.125 15.0984 13.125 14.0625C13.125 13.0266 13.9641 12.1875 15 12.1875C16.0359 12.1875 16.875 13.0266 16.875 14.0625C16.875 15.0984 16.0359 15.9375 15 15.9375Z" fill="#A61423"/>
<path d="M56.25 55.3125H50.625C50.1084 55.3125 49.6875 55.7325 49.6875 56.25V57.1875H57.1875V56.25C57.1875 55.7325 56.7666 55.3125 56.25 55.3125Z" fill="#515151"/>
<path d="M10.3125 39.375H19.6875V45H10.3125V39.375Z" fill="#515151"/>
<path d="M10.3125 35.625H19.6875V37.5H10.3125V35.625Z" fill="#515151"/>
<path d="M54.8001 17C54.4932 17 54.186 16.8827 53.9516 16.6484L50.3515 13.0483C49.8828 12.5797 49.8828 11.8201 50.3515 11.3515C50.8201 10.8828 51.5797 10.8828 52.0484 11.3515L55.6485 14.9515C56.1172 15.4202 56.1172 16.1798 55.6485 16.6484C55.4142 16.8827 55.107 17 54.8001 17Z" fill="#A61423"/>
<path d="M51.1999 17C50.893 17 50.5858 16.8827 50.3515 16.6484C49.8828 16.1798 49.8828 15.4202 50.3515 14.9515L53.9516 11.3515C54.4203 10.8828 55.1799 10.8828 55.6485 11.3515C56.1172 11.8201 56.1172 12.5797 55.6485 13.0483L52.0484 16.6484C51.814 16.8827 51.5068 17 51.1999 17Z" fill="#A61423"/>
<path d="M47 6C48.1046 6 49 5.10457 49 4C49 2.89543 48.1046 2 47 2C45.8954 2 45 2.89543 45 4C45 5.10457 45.8954 6 47 6Z" fill="#A61423"/>
<path d="M7.80009 7C7.49317 7 7.18596 6.8827 6.95165 6.64839L3.35147 3.0483C2.88284 2.57969 2.88284 1.82007 3.35147 1.35146C3.82009 0.882847 4.57973 0.882847 5.04835 1.35146L8.64853 4.95155C9.11716 5.42016 9.11716 6.17978 8.64853 6.64839C8.41422 6.8827 8.107 7 7.80009 7Z" fill="#A61423"/>
<path d="M4.19991 7C3.893 7 3.58578 6.8827 3.35147 6.64839C2.88284 6.17978 2.88284 5.42016 3.35147 4.95155L6.95165 1.35146C7.42027 0.882847 8.17991 0.882847 8.64853 1.35146C9.11716 1.82007 9.11716 2.57969 8.64853 3.0483L5.04835 6.64839C4.81404 6.8827 4.50683 7 4.19991 7Z" fill="#A61423"/>
<path d="M34.5 11C33.1215 11 32 9.87854 32 8.5C32 7.12146 33.1215 6 34.5 6C35.8785 6 37 7.12146 37 8.5C37 9.87854 35.8785 11 34.5 11ZM34.5 7.66667C34.0406 7.66667 33.6667 8.04062 33.6667 8.5C33.6667 8.95937 34.0406 9.33333 34.5 9.33333C34.9594 9.33333 35.3333 8.95937 35.3333 8.5C35.3333 8.04062 34.9594 7.66667 34.5 7.66667Z" fill="#A61423"/>
</svg>
