<svg width="60" height="60" viewBox="0 0 60 60" fill="none" xmlns="http://www.w3.org/2000/svg">
<path fill-rule="evenodd" clip-rule="evenodd" d="M56.3546 27.3448C56.2717 26.6066 55.4107 26.0513 54.6661 26.0513C52.2599 26.0513 50.1244 24.639 49.2288 22.4531C48.3146 20.2147 48.9045 17.6047 50.6972 15.96C51.2619 15.4438 51.3307 14.5793 50.8574 13.9792C49.6254 12.4152 48.2258 11.0022 46.6972 9.77774C46.0992 9.29804 45.2204 9.36481 44.7014 9.93923C43.1363 11.6727 40.3246 12.3168 38.1519 11.4104C35.8917 10.4594 34.465 8.16828 34.6052 5.70913C34.6513 4.9362 34.0862 4.26457 33.316 4.17485C31.3543 3.94772 29.3753 3.94113 27.4078 4.15941C26.6474 4.24345 26.0828 4.89918 26.108 5.66234C26.1931 8.09742 24.7504 10.3481 22.512 11.265C20.3654 12.142 17.5733 11.5026 16.0113 9.78433C15.495 9.21831 14.6317 9.14881 14.0296 9.61829C12.456 10.8532 11.0248 12.2671 9.78151 13.8184C9.29703 14.4214 9.36858 15.2955 9.938 15.8135C11.7662 17.4691 12.3556 20.1016 11.4064 22.3661C10.5002 24.525 8.25859 25.9157 5.69268 25.9157C4.86002 25.8889 4.26743 26.4483 4.17544 27.2056C3.94468 29.1777 3.94218 31.1883 4.16431 33.1766C4.24721 33.918 5.13371 34.4686 5.88642 34.4686C8.17364 34.4104 10.3682 35.8254 11.2901 38.0666C12.2075 40.3049 11.617 42.9138 9.82125 44.5607C9.25956 45.077 9.18778 45.9394 9.66204 46.5388C10.8815 48.0931 12.2825 49.507 13.8156 50.7419C14.4175 51.2266 15.2929 51.1587 15.8146 50.5836C17.3859 48.846 20.1971 48.203 22.361 49.1113C24.6277 50.0598 26.0537 52.3506 25.9144 54.8105C25.8688 55.5834 26.4353 56.2571 27.2027 56.3448C28.2067 56.4622 29.2158 56.5203 30.2281 56.5203C31.1889 56.5203 32.1499 56.4679 33.1109 56.3609C33.8722 56.2768 34.436 55.6204 34.4103 54.857C34.3224 52.4231 35.7683 50.1722 38.004 49.2571C40.1649 48.3745 42.9446 49.0204 44.5075 50.7362C45.0264 51.3011 45.8846 51.3697 46.4892 50.902C48.06 49.6703 49.4885 48.257 50.7372 46.7016C51.2221 46.0997 51.1533 45.2246 50.5807 44.7056C48.753 43.0512 48.1604 40.4176 49.1096 38.1554C50.0018 36.0255 52.16 34.5955 54.4813 34.5955L54.8061 34.6042C55.5597 34.6653 56.2522 34.0849 56.3433 33.3161C56.5752 31.3421 56.5777 29.3338 56.3546 27.3448ZM15.1205 30.2605C15.1205 38.6217 21.8983 45.3995 30.2597 45.3995C33.2599 45.3995 36.0536 44.5232 38.4062 43.0178L43.2575 38.0229C44.6165 35.753 45.3989 33.0985 45.3989 30.2605C45.3989 21.8993 38.6209 15.1215 30.2597 15.1215C21.8985 15.1215 15.1205 21.8993 15.1205 30.2605Z" fill="#515151"/>
<path d="M36.5898 31.4413L43.2189 38.0706L38.3676 43.0655L31.6665 36.3644C30.5352 36.8443 29.3084 37.0976 28.0424 37.0976C25.5633 37.0976 23.2324 36.1323 21.4792 34.3793C19.1359 32.0357 18.2183 28.5901 19.0839 25.3869C19.2106 24.9211 19.6131 24.5963 20.0626 24.5963C20.2554 24.5963 20.5448 24.6553 20.8269 24.9365C20.8269 24.9365 23.9713 28.0584 25.111 29.1982C25.2877 29.3747 25.4822 29.4117 25.6144 29.4117C25.6384 29.4117 25.6566 29.4103 25.6664 29.4092L25.7213 29.3953L25.7211 29.4019C26.944 29.2924 28.4113 29.0771 28.9739 28.8965C28.9982 28.8716 29.0213 28.8473 29.0465 28.822C29.0706 28.798 29.0929 28.7782 29.1165 28.7548C29.2921 28.1995 29.5049 26.7545 29.6153 25.5507L29.6255 25.4787C29.6416 25.3801 29.6419 25.1064 29.5272 24.9917C28.4322 23.8969 25.1594 20.599 25.1594 20.599C24.88 20.3194 24.7731 19.953 24.868 19.5955C24.9609 19.2459 25.2462 18.9584 25.5951 18.8632C26.3916 18.6463 27.215 18.5364 28.0422 18.5364C30.5209 18.5364 32.8515 19.5017 34.6042 21.2545C36.3575 23.0072 37.323 25.3378 37.323 27.817C37.3232 29.083 37.0698 30.3098 36.5898 31.4413Z" fill="#A61423"/>
<path d="M5.80009 7C5.49317 7 5.18596 6.8827 4.95165 6.64839L1.35147 3.0483C0.882844 2.57969 0.882844 1.82007 1.35147 1.35146C1.82009 0.882847 2.57973 0.882847 3.04835 1.35146L6.64853 4.95155C7.11716 5.42016 7.11716 6.17978 6.64853 6.64839C6.41422 6.8827 6.107 7 5.80009 7Z" fill="#A61423"/>
<path d="M2.19991 7C1.893 7 1.58578 6.8827 1.35147 6.64839C0.882844 6.17978 0.882844 5.42016 1.35147 4.95155L4.95165 1.35146C5.42027 0.882847 6.17991 0.882847 6.64853 1.35146C7.11716 1.82007 7.11716 2.57969 6.64853 3.0483L3.04835 6.64839C2.81404 6.8827 2.50683 7 2.19991 7Z" fill="#A61423"/>
<path d="M5.5 22C4.12146 22 3 20.8785 3 19.5C3 18.1215 4.12146 17 5.5 17C6.87854 17 8 18.1215 8 19.5C8 20.8785 6.87854 22 5.5 22ZM5.5 18.6667C5.04062 18.6667 4.66667 19.0406 4.66667 19.5C4.66667 19.9594 5.04062 20.3333 5.5 20.3333C5.95937 20.3333 6.33333 19.9594 6.33333 19.5C6.33333 19.0406 5.95937 18.6667 5.5 18.6667Z" fill="#A61423"/>
<path d="M55 45C56.1046 45 57 44.1046 57 43C57 41.8954 56.1046 41 55 41C53.8954 41 53 41.8954 53 43C53 44.1046 53.8954 45 55 45Z" fill="#A61423"/>
</svg>
